<svg id="visual" viewBox="0 0 900 900" width="900" height="900" xmlns="http://www.w3.org/2000/svg" xmlns:xlink="http://www.w3.org/1999/xlink" version="1.1"><rect x="0" y="0" width="900" height="900" fill=var(--skin-color)></rect><defs><linearGradient id="grad1_0" x1="0%" y1="100%" x2="100%" y2="0%"><stop offset="30%" stop-color="#001220" stop-opacity="1"></stop><stop offset="70%" stop-color="#001220" stop-opacity="1"></stop></linearGradient></defs><defs><linearGradient id="grad2_0" x1="0%" y1="100%" x2="100%" y2="0%"><stop offset="30%" stop-color="#001220" stop-opacity="1"></stop><stop offset="70%" stop-color="#001220" stop-opacity="1"></stop></linearGradient></defs><g transform="translate(900, 900)"><path d="M-318.2 0C-300.9 -34.6 -283.7 -69.1 -272.5 -112.9C-261.4 -156.7 -256.3 -209.7 -225 -225C-193.7 -240.3 -136 -218 -94.1 -227.3C-52.3 -236.5 -26.1 -277.4 0 -318.2L0 0Z" fill="#FBAE3C"></path></g><g transform="translate(0, 0)"><path d="M318.2 0C286.8 30.1 255.4 60.2 244.8 101.4C234.2 142.6 244.4 194.8 225 225C205.6 255.2 156.5 263.4 114 275.3C71.6 287.2 35.8 302.7 0 318.2L0 0Z" fill="#FBAE3C"></path></g></svg>