<svg width="127" height="60" viewBox="0 0 127 60" fill="none" xmlns="http://www.w3.org/2000/svg">
<rect x="0.5" y="0.5" width="126" height="59" fill="white"/>
<path d="M13.672 42V19.56H21.662C24.314 19.56 26.252 20.1153 27.476 21.226C28.7 22.3367 29.312 23.844 29.312 25.748C29.312 26.8813 28.9833 27.9127 28.326 28.842C27.6687 29.7487 26.7393 30.3267 25.538 30.576V30.61C26.8753 30.8593 27.9293 31.4713 28.7 32.446C29.4933 33.398 29.89 34.486 29.89 35.71C29.89 37.614 29.176 39.144 27.748 40.3C26.32 41.4333 24.28 42 21.628 42H13.672ZM16.392 39.45H22.274C23.8833 39.45 25.0733 39.1213 25.844 38.464C26.6373 37.8067 27.034 36.8887 27.034 35.71C27.034 34.5087 26.6373 33.5907 25.844 32.956C25.0733 32.2987 23.8833 31.97 22.274 31.97H16.392V39.45ZM16.392 29.42H21.696C24.8693 29.42 26.456 28.196 26.456 25.748C26.456 23.3227 24.8693 22.11 21.696 22.11H16.392V29.42ZM40.8489 42.34C39.7609 42.34 38.7296 42.136 37.7549 41.728C36.8029 41.32 36.0209 40.6627 35.4089 39.756C34.8196 38.8267 34.5249 37.6253 34.5249 36.152V25H37.2449V35.438C37.2449 37.1607 37.6189 38.3507 38.3669 39.008C39.1149 39.6427 40.1689 39.96 41.5289 39.96C42.1636 39.96 42.7869 39.858 43.3989 39.654C44.0109 39.4273 44.5549 39.0873 45.0309 38.634C45.5296 38.158 45.9149 37.5573 46.1869 36.832C46.4816 36.1067 46.6289 35.2453 46.6289 34.248V25H49.3489V42H46.9689L46.7989 39.416C46.2096 40.436 45.4049 41.184 44.3849 41.66C43.3876 42.1133 42.2089 42.34 40.8489 42.34ZM59.0113 20.172V37.308C59.0113 38.1467 59.2493 38.77 59.7253 39.178C60.2013 39.586 60.8133 39.79 61.5613 39.79C62.2186 39.79 62.7853 39.6767 63.2613 39.45C63.7373 39.2233 64.1679 38.9173 64.5533 38.532L65.5053 40.81C64.9839 41.286 64.3606 41.66 63.6353 41.932C62.9326 42.204 62.1166 42.34 61.1873 42.34C60.3259 42.34 59.5213 42.1927 58.7733 41.898C58.0253 41.5807 57.4246 41.0933 56.9713 40.436C56.5406 39.756 56.3139 38.872 56.2913 37.784V20.92L59.0113 20.172ZM65.1993 25V27.346H52.8913V25H65.1993ZM70.384 20.172V37.308C70.384 38.1467 70.622 38.77 71.098 39.178C71.574 39.586 72.186 39.79 72.934 39.79C73.5913 39.79 74.158 39.6767 74.634 39.45C75.11 39.2233 75.5407 38.9173 75.926 38.532L76.878 40.81C76.3567 41.286 75.7333 41.66 75.008 41.932C74.3053 42.204 73.4893 42.34 72.56 42.34C71.6987 42.34 70.894 42.1927 70.146 41.898C69.398 41.5807 68.7973 41.0933 68.344 40.436C67.9133 39.756 67.6867 38.872 67.664 37.784V20.92L70.384 20.172ZM76.572 25V27.346H64.264V25H76.572ZM86.9741 24.66C88.5835 24.66 90.0001 25.0113 91.2241 25.714C92.4708 26.4167 93.4455 27.4367 94.1481 28.774C94.8508 30.0887 95.2021 31.664 95.2021 33.5C95.2021 35.336 94.8508 36.9227 94.1481 38.26C93.4455 39.5747 92.4708 40.5833 91.2241 41.286C90.0001 41.9887 88.5835 42.34 86.9741 42.34C85.3875 42.34 83.9708 41.9887 82.7241 41.286C81.4775 40.5833 80.5028 39.5747 79.8001 38.26C79.0975 36.9227 78.7461 35.336 78.7461 33.5C78.7461 31.664 79.0975 30.0887 79.8001 28.774C80.5028 27.4367 81.4775 26.4167 82.7241 25.714C83.9708 25.0113 85.3875 24.66 86.9741 24.66ZM86.9741 27.006C85.8181 27.006 84.8321 27.2667 84.0161 27.788C83.2001 28.3093 82.5655 29.0573 82.1121 30.032C81.6815 30.984 81.4661 32.14 81.4661 33.5C81.4661 34.8373 81.6815 35.9933 82.1121 36.968C82.5655 37.9427 83.2001 38.6907 84.0161 39.212C84.8321 39.7333 85.8181 39.994 86.9741 39.994C88.1301 39.994 89.1161 39.7333 89.9321 39.212C90.7481 38.6907 91.3715 37.9427 91.8021 36.968C92.2555 35.9933 92.4821 34.8373 92.4821 33.5C92.4821 32.14 92.2555 30.984 91.8021 30.032C91.3715 29.0573 90.7481 28.3093 89.9321 27.788C89.1161 27.2667 88.1301 27.006 86.9741 27.006ZM99.6429 42V25H102.023L102.261 28.808L101.819 28.434C102.182 27.5273 102.669 26.802 103.281 26.258C103.893 25.6913 104.596 25.2833 105.389 25.034C106.205 24.7847 107.044 24.66 107.905 24.66C109.129 24.66 110.24 24.898 111.237 25.374C112.234 25.8273 113.028 26.53 113.617 27.482C114.229 28.434 114.535 29.6467 114.535 31.12V42H111.815V32.072C111.815 30.1907 111.407 28.8873 110.591 28.162C109.798 27.414 108.812 27.04 107.633 27.04C106.817 27.04 106.001 27.2327 105.185 27.618C104.369 28.0033 103.689 28.6267 103.145 29.488C102.624 30.3493 102.363 31.5053 102.363 32.956V42H99.6429Z" fill="black"/>
<rect x="0.5" y="0.5" width="126" height="59" stroke="#DB2020"/>
</svg>
