<svg id="visual" viewBox="0 0 1300 2000" width="1300" height="2000" xmlns="http://www.w3.org/2000/svg" xmlns:xlink="http://www.w3.org/1999/xlink" version="1.1"><rect width="1300" height="2000" fill="#00121f"></rect><g><g transform="translate(502 421)"><path d="M0 -277.8L217.2 -173.2L270.8 61.8L120.5 250.3L-120.5 250.3L-270.8 61.8L-217.2 -173.2Z" stroke="#b5ff00" fill="none" stroke-width="2"></path></g><g transform="translate(866 1647)"><path d="M0 -134L104.8 -83.5L130.6 29.8L58.1 120.7L-58.1 120.7L-130.6 29.8L-104.8 -83.5Z" stroke="#b5ff00" fill="none" stroke-width="2"></path></g><g transform="translate(672 1050)"><path d="M0 -172L134.5 -107.2L167.7 38.3L74.6 155L-74.6 155L-167.7 38.3L-134.5 -107.2Z" stroke="#b5ff00" fill="none" stroke-width="2"></path></g><g transform="translate(293 1495)"><path d="M0 -209L163.4 -130.3L203.8 46.5L90.7 188.3L-90.7 188.3L-203.8 46.5L-163.4 -130.3Z" stroke="#b5ff00" fill="none" stroke-width="2"></path></g></g></svg>